<?xml version="1.0" encoding="UTF-8" standalone="no"?>
<!-- Generator: Adobe Illustrator 16.0.0, SVG Export Plug-In . SVG Version: 6.00 Build 0)  -->

<svg
   xmlns:dc="http://purl.org/dc/elements/1.1/"
   xmlns:cc="http://creativecommons.org/ns#"
   xmlns:rdf="http://www.w3.org/1999/02/22-rdf-syntax-ns#"
   xmlns:svg="http://www.w3.org/2000/svg"
   xmlns="http://www.w3.org/2000/svg"
   xmlns:sodipodi="http://sodipodi.sourceforge.net/DTD/sodipodi-0.dtd"
   xmlns:inkscape="http://www.inkscape.org/namespaces/inkscape"
   version="1.1"
   id="Capa_1"
   x="0px"
   y="0px"
   width="97.385px"
   height="97.385px"
   viewBox="0 0 97.385 97.385"
   style="enable-background:new 0 0 97.385 97.385;"
   xml:space="preserve"
   sodipodi:docname="computer2.svg"
   inkscape:version="0.92.1 r15371"><metadata
     id="metadata53"><rdf:RDF><cc:Work
         rdf:about=""><dc:format>image/svg+xml</dc:format><dc:type
           rdf:resource="http://purl.org/dc/dcmitype/StillImage" /><dc:title></dc:title></cc:Work></rdf:RDF></metadata><defs
     id="defs51" /><sodipodi:namedview
     pagecolor="#ffffff"
     bordercolor="#666666"
     borderopacity="1"
     objecttolerance="10"
     gridtolerance="10"
     guidetolerance="10"
     inkscape:pageopacity="0"
     inkscape:pageshadow="2"
     inkscape:window-width="1615"
     inkscape:window-height="941"
     id="namedview49"
     showgrid="false"
     inkscape:zoom="7.619243"
     inkscape:cx="48.692501"
     inkscape:cy="48.692501"
     inkscape:window-x="-8"
     inkscape:window-y="-8"
     inkscape:window-maximized="1"
     inkscape:current-layer="Capa_1" /><g
     id="g16"><g
       id="g14"><path
         d="M97.265,71.261c-0.093-0.108-0.23-0.172-0.374-0.172H0.494c-0.144,0-0.28,0.063-0.374,0.172    c-0.094,0.108-0.136,0.253-0.115,0.396c0.014,0.09,1.468,9.016,12.753,9.016h71.869c11.284,0,12.738-8.926,12.753-9.016    C97.4,71.514,97.358,71.369,97.265,71.261z M55.942,77.547h-14.5v-3.334h14.5V77.547z"
         id="path10" /><path
         d="M10.507,67.619h76.37c1.104,0,2-0.896,2-2V18.713c0-1.104-0.896-2-2-2h-76.37c-1.104,0-2,0.896-2,2v46.906    C8.507,66.723,9.403,67.619,10.507,67.619z M15.507,23.713h66.37v36.906h-66.37V23.713z"
         id="path12" /></g></g><g
     id="g18" /><g
     id="g20" /><g
     id="g22" /><g
     id="g24" /><g
     id="g26" /><g
     id="g28" /><g
     id="g30" /><g
     id="g32" /><g
     id="g34" /><g
     id="g36" /><g
     id="g38" /><g
     id="g40" /><g
     id="g42" /><g
     id="g44" /><g
     id="g46" /><path
     style="fill:none;stroke-width:0.13124663"
     d="M 15.618349,42.182668 V 23.808139 H 48.692501 81.766653 V 42.182668 60.557197 H 48.692501 15.618349 Z"
     id="path3728"
     inkscape:connector-curvature="0" /><path
     style="fill:#ffffff;stroke-width:0.13124663"
     d="m 41.473936,75.913053 v -1.57496 h 7.218565 7.218565 v 1.57496 1.574959 h -7.218565 -7.218565 z"
     id="path3730"
     inkscape:connector-curvature="0" /><path
     style="fill:#ffffff;stroke-width:0.13124663"
     d="M 11.221587,80.552957 C 7.5698895,80.129633 5.2952059,79.18415 3.2329637,77.232445 1.611312,75.697716 0.01983326,72.795317 0.15492858,71.618995 l 0.0419414,-0.365198 H 48.692501 97.188132 l 0.04194,0.365198 c 0.08487,0.739013 -0.746995,2.688592 -1.748231,4.097188 -1.921738,2.703608 -4.979804,4.343861 -8.924687,4.786927 -1.085192,0.121883 -74.296305,0.170324 -75.335568,0.04985 z M 56.042313,75.913053 V 74.206847 H 48.692501 41.34269 v 1.706206 1.706206 h 7.349811 7.349812 z"
     id="path3732"
     inkscape:connector-curvature="0" /><path
     style="fill:#ffffff;stroke-width:0.13124663"
     d="M 9.4268203,67.188723 C 8.4523219,66.526535 8.520401,68.512525 8.5606234,41.920175 l 0.036031,-23.821264 0.3151323,-0.441846 c 0.1733227,-0.243015 0.5572191,-0.551788 0.853103,-0.686162 0.5207043,-0.236475 1.7701513,-0.244317 38.9276113,-0.244317 37.15746,0 38.406907,0.0078 38.927611,0.244317 0.295884,0.134374 0.67978,0.443147 0.853103,0.686162 l 0.315133,0.441846 0.03421,23.864804 c 0.03352,23.383557 0.02907,23.876426 -0.220753,24.441185 -0.153467,0.346934 -0.428317,0.682071 -0.690441,0.841884 -0.434528,0.264922 -0.520351,0.265504 -39.221206,0.265993 L 9.9044313,67.513268 Z M 81.897899,42.182668 V 23.676893 H 48.692501 15.487103 v 18.505775 18.505775 h 33.205398 33.205398 z"
     id="path3734"
     inkscape:connector-curvature="0" /></svg>